# xmcd
#
# Track frame offsets: 
#        150
#        21578
#        40749
#        57853
#        77941
#        93588
#        108873
#        129406
#        144476
#        161047
#        176471
#        193366
#        213332
#        223154
#        239001
#        257891
#        276795
#        300902
#        317594
#        342654
#
# Disc length: 4764 seconds
#
# Revision: 0
# Processed by: cddbd v1.5.2PL0 Copyright (c) Steve Scherf et al.
# Submitted via: ExactAudioCopy v1.0b3
#
DISCID=30129a14
DTITLE=Various Artist - Country Hits - Latest and Greatest [CD 2,3)
DYEAR=2015
DGENRE=Country
TTITLE0=Lucinda Williams - Car Wheels On A Gravel Road
TTITLE1=Joan Osborne - One Of Us
TTITLE2=Toby Keith - As Good As I Once Was
TTITLE3=Sheryl Crow - Run, Baby, Run
TTITLE4=Kacey Musgraves - Merry Go 'Round
TTITLE5=Billy Ray Cyrus - Achy Breaky Heart
TTITLE6=Ryan Bingham - Dylan's Hard Rain
TTITLE7=Mary Chapin Carpenter - Passionate Kisses
TTITLE8=Vince Gill - Pretty Little Ariana
TTITLE9=Billy Bob Thornton - Angelina
TTITLE10=Lee Ann Womack - Never Again, Again
TTITLE11=Patty Smyth feat. Don Henley - Sometimes Love Ain't Just Enou
TTITLE11=gh
TTITLE12=Linda Ronstadt - When Will I Be Loved
TTITLE13=Tracy Byrd - I'm From The Country
TTITLE14=Nanci Griffith - From A Distance
TTITLE15=Juice Newton - Angel Of The Morning
TTITLE16=The Judds - Love Can Build A Bridge
TTITLE17=Tim Dugger - God For A Day
TTITLE18=Toby Keith - I Love This Bar
TTITLE19=The Bellamy Brothers - Let Your Love Flow
EXTD=
EXTT0=
EXTT1=
EXTT2=
EXTT3=
EXTT4=
EXTT5=
EXTT6=
EXTT7=
EXTT8=
EXTT9=
EXTT10=
EXTT11=
EXTT12=
EXTT13=
EXTT14=
EXTT15=
EXTT16=
EXTT17=
EXTT18=
EXTT19=
PLAYORDER=
